<svg width="32" height="32" viewBox="0 0 256 256" fill="none" xmlns="http://www.w3.org/2000/svg">
<rect width="256" height="256" rx="32" fill="#324ACD"/>
<path d="M194.054 112.677C194.054 123.335 192.448 132.752 189.236 140.928C186.17 149.104 181.79 155.966 176.096 161.514C180.914 168.96 183.323 176.187 183.323 183.195C183.323 189.181 180.987 194.145 176.315 198.087C171.789 202.029 166.606 204 160.766 204C157.408 204 154.342 203.489 151.568 202.467C148.794 201.445 145.801 199.693 142.589 197.211C139.815 195.021 137.187 192.028 134.705 188.232C132.223 184.436 130.252 180.494 128.792 176.406C123.974 175.822 119.156 174.581 114.338 172.683C115.214 177.355 115.652 180.932 115.652 183.414C115.652 197.284 108.425 204.219 93.9708 204.219C81.8528 204.219 73.3118 197.138 68.3478 182.976C63.3838 168.814 60.9018 151.513 60.9018 131.073C60.9018 117.203 63.3838 104.209 68.3478 92.091C73.4578 79.827 81.1958 69.972 91.5618 62.526C101.928 54.934 114.557 51.138 129.449 51.138C141.421 51.138 152.298 53.693 162.08 58.803C171.862 63.767 179.6 70.921 185.294 80.265C191.134 89.609 194.054 100.413 194.054 112.677ZM112.148 122.97C112.148 127.934 114.119 132.314 118.061 136.11C122.003 139.76 126.529 141.585 131.639 141.585C136.895 141.585 141.421 139.76 145.217 136.11C149.159 132.314 151.13 127.934 151.13 122.97C151.13 117.86 149.159 113.48 145.217 109.83C141.421 106.034 136.895 104.136 131.639 104.136C126.529 104.136 122.003 106.034 118.061 109.83C114.119 113.626 112.148 118.006 112.148 122.97Z" fill="white"/>
</svg>
