<svg width="1em" height="1em" stroke-linecap="round" stroke-linejoin="round" viewBox="0 0 24 24" fill="none"
	xmlns="http://www.w3.org/2000/svg" stroke-width="1">
	<path
		d="M13.6136 3.41307L13.6136 3.41312L13.6167 3.40772C13.6676 3.31875 13.7526 3.26982 13.8554 3.26982H17.4531C17.5119 3.26982 17.5476 3.29723 17.5646 3.32626C17.5814 3.35478 17.5859 3.39357 17.5603 3.43664C17.5602 3.43679 17.5601 3.43695 17.56 3.4371L7.10704 20.613C7.02775 20.7206 6.91132 20.7857 6.79389 20.7857H3.00802C3.00794 20.7851 3.00789 20.7846 3.00786 20.7841C3.00786 20.7841 3.00786 20.7841 3.00786 20.7841L13.6136 3.41307Z"
		stroke="currentColor" />
	<path
		d="M15.9081 20.6187L15.9028 20.6272L15.8984 20.6361C15.8503 20.7323 15.7525 20.7859 15.643 20.7859H12.0005C11.9595 20.7859 11.9271 20.7645 11.9096 20.734C11.8926 20.7045 11.8934 20.6752 11.9105 20.6496L11.9106 20.6496L11.9139 20.6443L16.9866 12.5326L16.9866 12.5326L16.9886 12.5292C17.0116 12.4909 17.0703 12.4544 17.1402 12.4544H20.7156C20.844 12.4544 20.9098 12.5865 20.8478 12.6839L20.8467 12.6857L15.9081 20.6187Z"
		stroke="currentColor" />
</svg>